<mxfile host="app.diagrams.net" modified="2024-02-11T14:28:41.810Z" agent="Mozilla/5.0 (Windows NT 10.0; Win64; x64) AppleWebKit/537.36 (KHTML, like Gecko) Chrome/121.0.0.0 Safari/537.36" etag="t2ZKpJwYL104GzFSti1R" version="23.1.2" type="device">
  <diagram name="Página-1" id="eCC8Ztov2MBUP27TJQ_o">
    <mxGraphModel dx="1912" dy="487" grid="1" gridSize="10" guides="1" tooltips="1" connect="1" arrows="1" fold="1" page="1" pageScale="1" pageWidth="1169" pageHeight="827" math="1" shadow="0">
      <root>
        <mxCell id="0" />
        <mxCell id="1" parent="0" />
        <mxCell id="aT20NPfCrh40Wx7BpDNM-1" style="edgeStyle=orthogonalEdgeStyle;rounded=0;orthogonalLoop=1;jettySize=auto;html=1;exitX=1;exitY=0.5;exitDx=0;exitDy=0;" parent="1" source="aT20NPfCrh40Wx7BpDNM-7" target="aT20NPfCrh40Wx7BpDNM-3" edge="1">
          <mxGeometry relative="1" as="geometry" />
        </mxCell>
        <mxCell id="aT20NPfCrh40Wx7BpDNM-2" style="edgeStyle=orthogonalEdgeStyle;rounded=0;orthogonalLoop=1;jettySize=auto;html=1;" parent="1" source="aT20NPfCrh40Wx7BpDNM-3" edge="1">
          <mxGeometry relative="1" as="geometry">
            <mxPoint x="180" y="300" as="targetPoint" />
          </mxGeometry>
        </mxCell>
        <mxCell id="aT20NPfCrh40Wx7BpDNM-3" value="contrôleur PI" style="rounded=0;whiteSpace=wrap;html=1;" parent="1" vertex="1">
          <mxGeometry x="20" y="270" width="120" height="60" as="geometry" />
        </mxCell>
        <mxCell id="aT20NPfCrh40Wx7BpDNM-4" style="edgeStyle=orthogonalEdgeStyle;rounded=0;orthogonalLoop=1;jettySize=auto;html=1;entryX=1;entryY=0.5;entryDx=0;entryDy=0;" parent="1" target="aT20NPfCrh40Wx7BpDNM-8" edge="1">
          <mxGeometry relative="1" as="geometry">
            <mxPoint x="220" y="330" as="sourcePoint" />
            <Array as="points">
              <mxPoint x="220" y="400" />
            </Array>
          </mxGeometry>
        </mxCell>
        <mxCell id="aT20NPfCrh40Wx7BpDNM-5" value="tension&amp;nbsp;&lt;br&gt;d&#39;alimentation&lt;br&gt;&amp;nbsp;du stator" style="text;html=1;strokeColor=none;fillColor=none;align=center;verticalAlign=middle;whiteSpace=wrap;rounded=0;" parent="1" vertex="1">
          <mxGeometry x="190" y="285" width="60" height="30" as="geometry" />
        </mxCell>
        <mxCell id="aT20NPfCrh40Wx7BpDNM-6" style="edgeStyle=orthogonalEdgeStyle;rounded=0;orthogonalLoop=1;jettySize=auto;html=1;exitX=0;exitY=0.5;exitDx=0;exitDy=0;" parent="1" source="aT20NPfCrh40Wx7BpDNM-8" target="aT20NPfCrh40Wx7BpDNM-7" edge="1">
          <mxGeometry relative="1" as="geometry">
            <Array as="points">
              <mxPoint x="-40" y="400" />
            </Array>
          </mxGeometry>
        </mxCell>
        <mxCell id="aT20NPfCrh40Wx7BpDNM-7" value="courants du stator" style="text;html=1;strokeColor=none;fillColor=none;align=center;verticalAlign=middle;whiteSpace=wrap;rounded=0;" parent="1" vertex="1">
          <mxGeometry x="-70" y="285" width="60" height="30" as="geometry" />
        </mxCell>
        <mxCell id="aT20NPfCrh40Wx7BpDNM-8" value="machine &lt;br&gt;asynchrone &lt;br&gt;à cage" style="rounded=0;whiteSpace=wrap;html=1;" parent="1" vertex="1">
          <mxGeometry x="30" y="370" width="100" height="60" as="geometry" />
        </mxCell>
        <mxCell id="aT20NPfCrh40Wx7BpDNM-9" style="edgeStyle=orthogonalEdgeStyle;rounded=0;orthogonalLoop=1;jettySize=auto;html=1;entryX=0.5;entryY=0;entryDx=0;entryDy=0;" parent="1" target="aT20NPfCrh40Wx7BpDNM-3" edge="1">
          <mxGeometry relative="1" as="geometry">
            <mxPoint x="80" y="230" as="sourcePoint" />
          </mxGeometry>
        </mxCell>
        <mxCell id="aT20NPfCrh40Wx7BpDNM-10" style="edgeStyle=orthogonalEdgeStyle;rounded=0;orthogonalLoop=1;jettySize=auto;html=1;" parent="1" source="aT20NPfCrh40Wx7BpDNM-11" edge="1">
          <mxGeometry relative="1" as="geometry">
            <mxPoint x="80" y="180" as="targetPoint" />
          </mxGeometry>
        </mxCell>
        <mxCell id="aT20NPfCrh40Wx7BpDNM-11" value="contrôleur &lt;br&gt;de vitesse" style="rounded=0;whiteSpace=wrap;html=1;" parent="1" vertex="1">
          <mxGeometry x="20" y="80" width="120" height="60" as="geometry" />
        </mxCell>
        <mxCell id="aT20NPfCrh40Wx7BpDNM-12" style="edgeStyle=orthogonalEdgeStyle;rounded=0;orthogonalLoop=1;jettySize=auto;html=1;entryX=1;entryY=0.5;entryDx=0;entryDy=0;" parent="1" source="aT20NPfCrh40Wx7BpDNM-14" target="aT20NPfCrh40Wx7BpDNM-11" edge="1">
          <mxGeometry relative="1" as="geometry">
            <Array as="points">
              <mxPoint x="160" y="110" />
              <mxPoint x="160" y="110" />
            </Array>
          </mxGeometry>
        </mxCell>
        <mxCell id="aT20NPfCrh40Wx7BpDNM-13" value="" style="edgeStyle=orthogonalEdgeStyle;rounded=0;orthogonalLoop=1;jettySize=auto;html=1;" parent="1" source="aT20NPfCrh40Wx7BpDNM-8" target="aT20NPfCrh40Wx7BpDNM-14" edge="1">
          <mxGeometry relative="1" as="geometry">
            <mxPoint x="-70" y="110" as="targetPoint" />
            <mxPoint x="80" y="430" as="sourcePoint" />
            <Array as="points">
              <mxPoint x="80" y="440" />
              <mxPoint x="280" y="440" />
              <mxPoint x="280" y="110" />
            </Array>
          </mxGeometry>
        </mxCell>
        <mxCell id="aT20NPfCrh40Wx7BpDNM-14" value="&lt;font style=&quot;font-size: 13px;&quot;&gt;$$\omega_m$$&lt;/font&gt;" style="text;html=1;strokeColor=none;fillColor=none;align=center;verticalAlign=middle;whiteSpace=wrap;rounded=0;" parent="1" vertex="1">
          <mxGeometry x="180" y="95" width="60" height="30" as="geometry" />
        </mxCell>
        <mxCell id="aT20NPfCrh40Wx7BpDNM-15" style="edgeStyle=orthogonalEdgeStyle;rounded=0;orthogonalLoop=1;jettySize=auto;html=1;entryX=0;entryY=0.5;entryDx=0;entryDy=0;" parent="1" source="aT20NPfCrh40Wx7BpDNM-16" target="aT20NPfCrh40Wx7BpDNM-11" edge="1">
          <mxGeometry relative="1" as="geometry" />
        </mxCell>
        <mxCell id="aT20NPfCrh40Wx7BpDNM-16" value="$$\omega_{m_{ref}}$$" style="text;html=1;strokeColor=none;fillColor=none;align=center;verticalAlign=middle;whiteSpace=wrap;rounded=0;" parent="1" vertex="1">
          <mxGeometry x="-80" y="95" width="60" height="30" as="geometry" />
        </mxCell>
        <mxCell id="aT20NPfCrh40Wx7BpDNM-17" value="(désirée)" style="text;html=1;strokeColor=none;fillColor=none;align=center;verticalAlign=middle;whiteSpace=wrap;rounded=0;" parent="1" vertex="1">
          <mxGeometry x="-80" y="120" width="60" height="30" as="geometry" />
        </mxCell>
        <mxCell id="aT20NPfCrh40Wx7BpDNM-18" value="courants de référence&amp;nbsp;&lt;br&gt;du stator" style="text;html=1;strokeColor=none;fillColor=none;align=center;verticalAlign=middle;whiteSpace=wrap;rounded=0;" parent="1" vertex="1">
          <mxGeometry x="35" y="190" width="90" height="30" as="geometry" />
        </mxCell>
      </root>
    </mxGraphModel>
  </diagram>
</mxfile>
